<svg width="76" height="76" viewBox="0 0 76 76" fill="none" xmlns="http://www.w3.org/2000/svg">
<path d="M31.0813 38C31.0813 34.18 34.1791 31.0825 38.0014 31.0825C41.8237 31.0825 44.9231 34.18 44.9231 38C44.9231 41.82 41.8237 44.9176 38.0014 44.9176C34.1791 44.9176 31.0813 41.82 31.0813 38ZM27.3396 38C27.3396 43.885 32.1129 48.6554 38.0014 48.6554C43.8899 48.6554 48.6632 43.885 48.6632 38C48.6632 32.115 43.8899 27.3446 38.0014 27.3446C32.1129 27.3446 27.3396 32.115 27.3396 38ZM46.5936 26.9221C46.5934 27.4146 46.7394 27.8961 47.013 28.3058C47.2866 28.7154 47.6756 29.0347 48.1308 29.2233C48.586 29.412 49.087 29.4615 49.5704 29.3656C50.0537 29.2697 50.4978 29.0327 50.8464 28.6846C51.195 28.3365 51.4325 27.8929 51.5288 27.4099C51.6251 26.9269 51.576 26.4262 51.3876 25.9711C51.1992 25.5161 50.88 25.127 50.4703 24.8532C50.0607 24.5795 49.579 24.4332 49.0862 24.433H49.0852C48.4247 24.4333 47.7913 24.6956 47.3241 25.1624C46.8569 25.6291 46.5942 26.262 46.5936 26.9221ZM29.6129 54.8909C27.5886 54.7987 26.4883 54.4617 25.7571 54.177C24.7877 53.7999 24.096 53.3506 23.3688 52.6248C22.6416 51.8991 22.1914 51.2085 21.8157 50.2396C21.5306 49.5092 21.1934 48.4092 21.1014 46.3861C21.0008 44.1988 20.9807 43.5417 20.9807 38.0002C20.9807 32.4587 21.0024 31.8034 21.1014 29.6143C21.1936 27.5912 21.5333 26.4933 21.8157 25.7608C22.1931 24.7919 22.6426 24.1007 23.3688 23.3739C24.095 22.6471 24.786 22.1972 25.7571 21.8217C26.488 21.5368 27.5886 21.1998 29.6129 21.1079C31.8016 21.0073 32.459 20.9872 38.0014 20.9872C43.5437 20.9872 44.2018 21.0089 46.3923 21.1079C48.4167 21.2 49.5151 21.5395 50.2482 21.8217C51.2176 22.1972 51.9092 22.6481 52.6365 23.3739C53.3637 24.0997 53.8122 24.7919 54.1896 25.7608C54.4746 26.4912 54.8118 27.5912 54.9038 29.6143C55.0045 31.8034 55.0246 32.4587 55.0246 38.0002C55.0246 43.5417 55.0045 44.1969 54.9038 46.3861C54.8116 48.4092 54.4728 49.5089 54.1896 50.2396C53.8122 51.2085 53.3627 51.8997 52.6365 52.6248C51.9102 53.35 51.2176 53.7999 50.2482 54.177C49.5173 54.4619 48.4167 54.7989 46.3923 54.8909C44.2037 54.9915 43.5462 55.0115 38.0014 55.0115C32.4565 55.0115 31.8009 54.9915 29.6129 54.8909ZM29.441 17.3747C27.2306 17.4753 25.7202 17.8256 24.4011 18.3385C23.0351 18.8683 21.8786 19.5789 20.723 20.732C19.5674 21.8851 18.8581 23.0427 18.3281 24.408C17.8148 25.7271 17.4643 27.2357 17.3637 29.4448C17.2613 31.6574 17.2379 32.3647 17.2379 38C17.2379 43.6353 17.2613 44.3427 17.3637 46.5553C17.4643 48.7645 17.8148 50.273 18.3281 51.5921C18.8581 52.9565 19.5676 54.1154 20.723 55.268C21.8785 56.4206 23.0351 57.1303 24.4011 57.6615C25.7227 58.1745 27.2306 58.5248 29.441 58.6254C31.6561 58.726 32.3627 58.751 38.0014 58.751C43.6401 58.751 44.3479 58.7276 46.5617 58.6254C48.7723 58.5248 50.2817 58.1745 51.6016 57.6615C52.9669 57.1303 54.1241 56.4211 55.2797 55.268C56.4353 54.1149 57.1431 52.9565 57.6747 51.5921C58.188 50.273 58.5401 48.7643 58.6391 46.5553C58.7398 44.341 58.7632 43.6353 58.7632 38C58.7632 32.3647 58.7398 31.6574 58.6391 29.4448C58.5384 27.2356 58.188 25.7262 57.6747 24.408C57.1431 23.0435 56.4335 21.887 55.2797 20.732C54.1259 19.5771 52.9669 18.8683 51.6033 18.3385C50.2817 17.8256 48.7721 17.4736 46.5634 17.3747C44.3495 17.2741 43.6417 17.249 38.003 17.249C32.3643 17.249 31.6561 17.2724 29.441 17.3747Z" fill="url(#paint0_radial_3_170)"/>
<path d="M31.0813 38C31.0813 34.18 34.1791 31.0825 38.0014 31.0825C41.8237 31.0825 44.9231 34.18 44.9231 38C44.9231 41.82 41.8237 44.9176 38.0014 44.9176C34.1791 44.9176 31.0813 41.82 31.0813 38ZM27.3396 38C27.3396 43.885 32.1129 48.6554 38.0014 48.6554C43.8899 48.6554 48.6632 43.885 48.6632 38C48.6632 32.115 43.8899 27.3446 38.0014 27.3446C32.1129 27.3446 27.3396 32.115 27.3396 38ZM46.5936 26.9221C46.5934 27.4146 46.7394 27.8961 47.013 28.3058C47.2866 28.7154 47.6756 29.0347 48.1308 29.2233C48.586 29.412 49.087 29.4615 49.5704 29.3656C50.0537 29.2697 50.4978 29.0327 50.8464 28.6846C51.195 28.3365 51.4325 27.8929 51.5288 27.4099C51.6251 26.9269 51.576 26.4262 51.3876 25.9711C51.1992 25.5161 50.88 25.127 50.4703 24.8532C50.0607 24.5795 49.579 24.4332 49.0862 24.433H49.0852C48.4247 24.4333 47.7913 24.6956 47.3241 25.1624C46.8569 25.6291 46.5942 26.262 46.5936 26.9221ZM29.6129 54.8909C27.5886 54.7987 26.4883 54.4617 25.7571 54.177C24.7877 53.7999 24.096 53.3506 23.3688 52.6248C22.6416 51.8991 22.1914 51.2085 21.8157 50.2396C21.5306 49.5092 21.1934 48.4092 21.1014 46.3861C21.0008 44.1988 20.9807 43.5417 20.9807 38.0002C20.9807 32.4587 21.0024 31.8034 21.1014 29.6143C21.1936 27.5912 21.5333 26.4933 21.8157 25.7608C22.1931 24.7919 22.6426 24.1007 23.3688 23.3739C24.095 22.6471 24.786 22.1972 25.7571 21.8217C26.488 21.5368 27.5886 21.1998 29.6129 21.1079C31.8016 21.0073 32.459 20.9872 38.0014 20.9872C43.5437 20.9872 44.2018 21.0089 46.3923 21.1079C48.4167 21.2 49.5151 21.5395 50.2482 21.8217C51.2176 22.1972 51.9092 22.6481 52.6365 23.3739C53.3637 24.0997 53.8122 24.7919 54.1896 25.7608C54.4746 26.4912 54.8118 27.5912 54.9038 29.6143C55.0045 31.8034 55.0246 32.4587 55.0246 38.0002C55.0246 43.5417 55.0045 44.1969 54.9038 46.3861C54.8116 48.4092 54.4728 49.5089 54.1896 50.2396C53.8122 51.2085 53.3627 51.8997 52.6365 52.6248C51.9102 53.35 51.2176 53.7999 50.2482 54.177C49.5173 54.4619 48.4167 54.7989 46.3923 54.8909C44.2037 54.9915 43.5462 55.0115 38.0014 55.0115C32.4565 55.0115 31.8009 54.9915 29.6129 54.8909ZM29.441 17.3747C27.2306 17.4753 25.7202 17.8256 24.4011 18.3385C23.0351 18.8683 21.8786 19.5789 20.723 20.732C19.5674 21.8851 18.8581 23.0427 18.3281 24.408C17.8148 25.7271 17.4643 27.2357 17.3637 29.4448C17.2613 31.6574 17.2379 32.3647 17.2379 38C17.2379 43.6353 17.2613 44.3427 17.3637 46.5553C17.4643 48.7645 17.8148 50.273 18.3281 51.5921C18.8581 52.9565 19.5676 54.1154 20.723 55.268C21.8785 56.4206 23.0351 57.1303 24.4011 57.6615C25.7227 58.1745 27.2306 58.5248 29.441 58.6254C31.6561 58.726 32.3627 58.751 38.0014 58.751C43.6401 58.751 44.3479 58.7276 46.5617 58.6254C48.7723 58.5248 50.2817 58.1745 51.6016 57.6615C52.9669 57.1303 54.1241 56.4211 55.2797 55.268C56.4353 54.1149 57.1431 52.9565 57.6747 51.5921C58.188 50.273 58.5401 48.7643 58.6391 46.5553C58.7398 44.341 58.7632 43.6353 58.7632 38C58.7632 32.3647 58.7398 31.6574 58.6391 29.4448C58.5384 27.2356 58.188 25.7262 57.6747 24.408C57.1431 23.0435 56.4335 21.887 55.2797 20.732C54.1259 19.5771 52.9669 18.8683 51.6033 18.3385C50.2817 17.8256 48.7721 17.4736 46.5634 17.3747C44.3495 17.2741 43.6417 17.249 38.003 17.249C32.3643 17.249 31.6561 17.2724 29.441 17.3747Z" fill="url(#paint1_radial_3_170)"/>
<defs>
<radialGradient id="paint0_radial_3_170" cx="0" cy="0" r="1" gradientUnits="userSpaceOnUse" gradientTransform="translate(22.755 58.9471) scale(54.2099 54.1774)">
<stop offset="0.09" stop-color="#FA8F21"/>
<stop offset="0.78" stop-color="#D82D7E"/>
</radialGradient>
<radialGradient id="paint1_radial_3_170" cx="0" cy="0" r="1" gradientUnits="userSpaceOnUse" gradientTransform="translate(42.4222 60.8064) scale(42.7249 42.6993)">
<stop offset="0.64" stop-color="#8C3AAA" stop-opacity="0"/>
<stop offset="1" stop-color="#8C3AAA"/>
</radialGradient>
</defs>
</svg>
