<svg width="71" height="71" viewBox="0 0 71 71" fill="none" xmlns="http://www.w3.org/2000/svg">
<path d="M16.2841 19.0632C16.2841 17.5293 17.5682 16.2842 19.1512 16.2842H52.2118C53.7954 16.2842 55.0789 17.5293 55.0789 19.0632V52.3005C55.0789 53.8349 53.7954 55.0791 52.2118 55.0791H19.1512C17.5684 55.0791 16.2841 53.8351 16.2841 52.301V19.0627V19.0632Z" fill="#006699"/>
<path d="M28.0731 48.7507V31.2851H22.2678V48.7507H28.0737H28.0731ZM25.1717 28.9009C27.1957 28.9009 28.4558 27.5598 28.4558 25.8837C28.4179 24.1694 27.1957 22.8657 25.2102 22.8657C23.2233 22.8657 21.9257 24.1694 21.9257 25.8835C21.9257 27.5596 23.1853 28.9008 25.1337 28.9008H25.1712L25.1717 28.9009ZM31.2864 48.7507H37.0913V38.9982C37.0913 38.4769 37.1292 37.9542 37.2825 37.5819C37.702 36.5385 38.6572 35.4585 40.2612 35.4585C42.3613 35.4585 43.2019 37.06 43.2019 39.4081V48.7507H49.0066V38.7365C49.0066 33.372 46.1431 30.8757 42.3237 30.8757C39.1924 30.8757 37.8172 32.6258 37.0531 33.8179H37.0917V31.2857H31.2867C31.3625 32.9242 31.2863 48.7513 31.2863 48.7513L31.2864 48.7507Z" fill="white"/>
</svg>
